<svg xmlns="http://www.w3.org/2000/svg" width="314.015" height="314.015" fill="#eda81b"><path fill="#bdbdbd" d="M219.812 0H94.204C76.862 0 62.802 14.052 62.802 31.402v251.21c0 17.344 14.06 31.402 31.402 31.402h125.607c17.34 0 31.401-14.059 31.401-31.402V31.402C251.213 14.052 237.151 0 219.812 0zm-62.805 298.313c-8.666 0-15.701-7.037-15.701-15.701 0-8.66 7.035-15.701 15.701-15.701 8.664 0 15.701 7.041 15.701 15.701 0 8.664-7.037 15.701-15.701 15.701zm62.805-47.107H94.204V31.402h125.607v219.804z"/></svg>